<?xml version="1.0" encoding="utf-8"?>
<!-- Generator: Adobe Illustrator 23.0.3, SVG Export Plug-In . SVG Version: 6.00 Build 0)  -->
<svg version="1.1" id="Icons" xmlns="http://www.w3.org/2000/svg" xmlns:xlink="http://www.w3.org/1999/xlink" x="0px" y="0px"
	 viewBox="0 0 32 32" style="enable-background:new 0 0 32 32;" xml:space="preserve">
<path d="M16,4C8.3,4,2,10.3,2,18c0,3.2,1,6.2,3,8.7C5.3,27,5.8,27.2,6.2,27c2.5-1,5-1.7,7.7-1.9l5.2-9.6c0.3-0.5,0.9-0.7,1.4-0.4
	c0.5,0.3,0.7,0.9,0.4,1.4L16.2,25c3.3,0,6.5,0.7,9.6,2c0.1,0.1,0.3,0.1,0.4,0.1c0.3,0,0.6-0.1,0.8-0.4c2-2.5,3-5.5,3-8.7
	C30,10.3,23.7,4,16,4z M8,19H6c-0.6,0-1-0.4-1-1s0.4-1,1-1h2c0.6,0,1,0.4,1,1S8.6,19,8,19z M11,13c-0.2,0.2-0.5,0.3-0.7,0.3
	S9.8,13.2,9.6,13l-1.4-1.4c-0.4-0.4-0.4-1,0-1.4s1-0.4,1.4,0l1.4,1.4C11.4,12,11.4,12.7,11,13z M17,10c0,0.6-0.4,1-1,1s-1-0.4-1-1V8
	c0-0.6,0.4-1,1-1s1,0.4,1,1V10z M21.7,13.3c-0.3,0-0.5-0.1-0.7-0.3c-0.4-0.4-0.4-1,0-1.4l1.4-1.4c0.4-0.4,1-0.4,1.4,0s0.4,1,0,1.4
	L22.4,13C22.2,13.2,21.9,13.3,21.7,13.3z M26,19h-2c-0.6,0-1-0.4-1-1s0.4-1,1-1h2c0.6,0,1,0.4,1,1S26.6,19,26,19z"/>
</svg>
